<svg width="64" height="64" viewBox="0 0 24 24" fill="none" xmlns="http://www.w3.org/2000/svg"><path d="M15 13C15 14.6569 13.6569 16 12 16C10.3431 16 9 14.6569 9 13C9 11.3431 10.3431 10 12 10C13.6569 10 15 11.3431 15 13Z" stroke="currentColor" stroke-width="2"/><path d="M12 21V16" stroke="currentColor" stroke-width="2"/><path d="M15.5 10C15.8333 8.33333 17 6 20 5" stroke="currentColor" stroke-width="2" stroke-linecap="round"/><path d="M8.5 10C8.16667 8.33333 7 6 4 5" stroke="currentColor" stroke-width="2" stroke-linecap="round"/><path d="M20 5C18.5 7.5 16 10 16 13" stroke="currentColor" stroke-width="2" stroke-linecap="round"/><path d="M4 5C5.5 7.5 8 10 8 13" stroke="currentColor" stroke-width="2" stroke-linecap="round"/><path d="M12 10V3" stroke="currentColor" stroke-width="2" stroke-linecap="round"/><path d="M12 3L14 4" stroke="currentColor" stroke-width="2" stroke-linecap="round"/><path d="M12 3L10 4" stroke="currentColor" stroke-width="2" stroke-linecap="round"/></svg>